<svg width="611" height="388" viewBox="0 0 611 388" fill="none" xmlns="http://www.w3.org/2000/svg">
<g clip-path="url(#clip0_514_1750)">
<path d="M383.405 35.1157C379.375 31.2082 377.375 26.376 377.375 20.6789C377.375 15.7274 378.987 11.3128 382.241 7.4948C386.419 2.60297 392.867 -0.260532 399.314 0.127234C404.299 0.425516 408.657 2.42401 412.299 6.24201C416.329 10.3285 418.329 15.1606 418.329 20.6789C418.329 27.2112 415.702 32.6101 410.419 36.7562C407.165 39.3215 403.076 40.8129 398.956 40.9322C392.777 41.141 387.643 39.2022 383.405 35.1157Z" fill="white"/>
<path d="M147.952 182.825C151.862 186.852 153.802 191.624 153.802 197.142C153.802 202.661 151.862 206.986 147.952 210.655C144.071 214.353 139.415 216.173 134.072 216.173C128.729 216.173 123.893 214.353 120.072 210.655C116.311 207.016 114.431 202.482 114.431 197.142C114.431 191.803 116.311 186.852 120.072 182.825C123.893 178.798 128.55 176.8 134.072 176.8C139.594 176.8 144.071 178.798 147.952 182.825Z" fill="white"/>
<path d="M609.336 128.388C593.128 135.935 577.099 142.02 561.338 146.524C545.518 150.968 528.981 154.309 511.639 156.308C494.296 158.366 474.953 159.38 453.581 159.38C439.641 159.38 428.388 158.127 419.911 155.562C411.374 152.997 405.135 148.791 401.135 142.825C399.762 140.827 398.568 138.56 397.553 136.114C396.419 137.754 395.225 139.246 394.031 140.648C389.434 145.987 384.3 150.014 378.629 152.698C372.987 155.323 366.868 157.143 360.331 158.038C353.734 158.992 346.69 159.41 339.108 159.41C325.347 159.41 313.348 157.65 303.109 154.07C292.811 150.431 284.901 145.271 279.349 138.5C275.886 134.294 273.439 129.582 272.066 124.362C266.424 129.194 260.006 133.579 252.902 137.546C241.858 143.69 229.351 148.791 215.531 152.669C201.65 156.576 186.696 159.44 170.547 161.408C154.458 163.347 137.504 164.361 119.654 164.361C98.4902 164.361 80.5804 162.78 65.7452 159.708C50.9696 156.636 38.8507 152.161 29.4182 146.345C19.9857 140.499 13.0308 133.4 8.49365 125.137C3.95651 116.845 1.71777 107.568 1.71777 97.3075C1.71777 91.1628 2.22521 84.8691 3.2998 78.5455C4.31469 72.1921 5.62807 65.9879 7.2698 59.9029C8.97123 53.8776 10.4637 48.2997 11.9263 43.1395L45.8057 51.1633C44.9997 54.6233 44.0445 58.501 43.0296 62.8559C41.955 67.181 41.1491 71.3271 40.582 75.2943C39.9551 79.3211 39.6268 83.0794 39.6268 86.5395C39.6268 94.951 42.3431 102.169 47.8056 108.254C53.2084 114.28 62.3722 118.873 75.2075 121.946C88.013 125.018 105.505 126.539 127.683 126.539C141.832 126.539 155.772 125.853 169.532 124.391C183.293 122.96 196.606 120.126 209.441 115.92C222.247 111.714 234.395 105.63 245.768 97.6356C257.141 89.6118 267.379 79.0526 276.364 65.9282L306.273 80.365C304.841 84.5112 303.706 88.2099 303.02 91.6103C302.333 95.0107 301.945 97.8145 301.945 100.081C301.945 104.347 303.139 108.105 305.467 111.327C307.855 114.459 311.945 116.964 317.795 118.873C323.646 120.693 331.795 121.647 342.302 121.647C350.272 121.647 356.63 120.902 361.346 119.44C366.122 118.068 369.823 115.115 372.599 110.7C375.375 106.316 377.703 99.8429 379.584 91.312C381.405 82.8408 383.494 71.4763 385.673 57.3377L421.105 63.4823C420.657 66.7336 420.09 70.5217 419.224 74.7275C418.418 78.9333 417.702 83.1391 417.075 87.4642C416.448 91.7296 416.209 95.6967 416.209 99.1568C416.209 103.87 417.224 107.896 419.224 111.148C421.284 114.399 425.254 116.994 431.104 118.873C436.955 120.693 445.552 121.647 456.805 121.647C468.058 121.647 475.73 121.528 481.431 121.319C487.222 121.14 491.49 120.812 494.386 120.573C497.281 120.245 499.549 120.066 501.161 120.066C498.654 118.068 495.579 114.966 491.729 110.849C487.968 106.763 484.625 101.543 481.729 95.1598C478.834 88.8064 477.401 81.2301 477.401 72.4307C477.401 60.1117 480.476 49.3139 486.625 40.097C492.774 30.8801 501.132 23.6318 511.758 18.4417C522.325 13.2218 534.265 10.5969 547.578 10.5969C553.547 10.5969 559.338 11.0443 564.86 11.8497C570.383 12.6551 575.905 13.8482 581.457 15.5484L575.308 51.2229C571.218 50.2088 566.89 49.3437 562.413 48.777C557.876 48.1506 553.756 47.8225 550.085 47.8225C543.1 47.8225 536.951 49.0156 531.727 51.3422C526.504 53.7285 522.414 56.9201 519.608 61.0662C511.31 72.7589 515.728 87.7326 524.772 97.4268C533.548 106.852 544.861 111.058 557.637 108.344C571.159 105.451 584.472 98.769 597.158 93.3403L609.486 128.448L609.336 128.388Z" fill="white"/>
<path d="M132.4 313.472C132.4 272.369 106.819 246.806 65.6559 246.806C24.4933 246.806 0.225586 273.234 0.225586 315.739C0.225586 358.245 26.5231 387.953 67.2081 387.953C103.057 387.953 119.654 369.102 127.295 353.293L127.862 352.1L100.252 334.889L99.7143 336.738C95.3861 351.593 84.0433 359.467 66.9395 359.467C47.6865 359.467 35.3586 347.596 32.9408 326.865H132.4V313.502V313.472ZM65.6559 275.024C83.8045 275.024 95.8936 284.241 99.0875 300.348H33.5975C36.9406 284.479 48.8208 275.024 65.6858 275.024H65.6559Z" fill="white"/>
<path d="M286.364 304.613V385.448H253.29V307.149C253.29 284.837 246.216 276.545 227.232 276.545C203.233 276.545 188.308 295.814 188.308 326.835V385.448H155.234V249.342H188.308V267C198.874 253.786 214.934 246.806 235.082 246.806C267.23 246.806 286.364 268.432 286.364 304.613Z" fill="white"/>
<path d="M430.776 355.679V308.431C430.776 269.864 407.912 246.806 369.615 246.806C338.959 246.806 317.587 262.019 310.93 288.566L310.572 290.057L342.421 296.5L342.72 295.068C345.436 281.944 354.063 275.561 369.077 275.561C387.047 275.561 395.285 282.421 397.285 299.095L353.167 303.39C314.542 307.03 306.423 328.178 306.423 345.299C306.423 384.881 342.989 387.953 354.182 387.953C374.241 387.953 390.241 381.421 400.718 369.013C402.27 379.244 409.702 385.448 420.896 385.448H449.193V355.679H430.776ZM357.734 358.96C345.496 358.96 339.287 353.412 339.287 342.525C339.287 336.589 340.69 331.548 358.033 329.848L397.345 325.672C394.748 345.657 379.047 358.96 357.734 358.96Z" fill="white"/>
<path d="M546.593 246.806C526.265 246.806 509.579 253.697 498.028 266.761V196.039H464.954V385.448H498.028V367.551C509.639 380.914 526.355 387.953 546.593 387.953C585.009 387.953 610.799 359.527 610.799 317.231C610.799 274.934 584.979 246.806 546.593 246.806ZM539.25 276.545C563.518 276.545 577.965 291.757 577.965 317.231C577.965 342.704 563.488 358.185 539.25 358.185C509.221 358.185 498.565 336.112 498.565 317.231C498.565 287.224 520.474 276.545 539.25 276.545Z" fill="white"/>
</g>
<defs>
<clipPath id="clip0_514_1750">
<rect width="611" height="388" fill="white"/>
</clipPath>
</defs>
</svg>
