<svg width="1080" height="1080" viewBox="0 0 1080 1080" fill="none" xmlns="http://www.w3.org/2000/svg">
<g clip-path="url(#clip0_508_1877)">
<mask id="mask0_508_1877" style="mask-type:luminance" maskUnits="userSpaceOnUse" x="171" y="121" width="739" height="837">
<path d="M910 121H171V958H910V121Z" fill="white"/>
</mask>
<g mask="url(#mask0_508_1877)">
<path d="M504.281 957.078C457.971 952.606 412.976 932.457 377.876 896.786C298.517 816.079 299.569 685.865 380.296 606.526C392.347 594.69 411.765 594.847 423.659 606.895C435.499 618.942 435.342 638.357 423.29 650.248C366.666 705.911 365.876 797.244 421.607 853.855C477.284 910.465 568.641 911.201 625.265 855.538C681.889 799.875 682.679 708.54 626.95 651.93C615.109 639.883 615.266 620.469 627.318 608.579C639.369 596.741 658.787 596.898 670.681 608.947C750.04 689.653 748.986 819.868 668.261 899.205C623.212 943.506 562.746 962.708 504.333 957.026L504.281 957.078Z" fill="white"/>
<path d="M356.143 182.16C340.039 180.582 327.777 166.693 328.514 150.33C329.251 133.442 343.564 120.342 360.458 121.026L770.879 138.914C787.666 139.492 800.875 153.961 800.14 170.849C799.402 187.737 785.089 200.838 768.195 200.101L357.773 182.213C357.247 182.213 356.669 182.16 356.143 182.108V182.16Z" fill="white"/>
<path d="M545.381 390.135C542.435 389.872 539.487 389.134 536.592 387.925C520.963 381.454 513.543 363.514 520.016 347.888C550.539 274.073 528.436 179.004 528.172 178.057C524.226 161.642 534.382 145.069 550.802 141.123C567.221 137.178 583.745 147.226 587.744 163.694C588.85 168.376 614.899 278.808 576.64 371.3C571.378 384.084 558.433 391.344 545.381 390.081V390.135Z" fill="white"/>
<path d="M779.772 681.235C769.563 680.236 760.092 674.186 755.25 664.294C747.777 649.142 753.987 630.728 769.142 623.257C839.398 588.533 868.341 503.144 833.608 432.908C816.768 398.869 787.719 373.404 751.777 361.251C715.835 349.044 677.259 351.623 643.211 368.458C572.957 403.182 544.013 488.572 578.746 558.807C586.219 573.959 580.009 592.375 564.852 599.845C549.696 607.368 531.277 601.108 523.804 585.956C474.127 485.415 515.543 363.197 616.11 313.532C664.84 289.488 719.991 285.805 771.459 303.219C822.925 320.634 864.499 357.042 888.602 405.761C938.28 506.301 896.917 628.518 796.35 678.183C791.035 680.814 785.351 681.761 779.827 681.235H779.772Z" fill="white"/>
<path d="M863.71 590.322C860.922 590.058 858.079 589.375 855.343 588.271C839.607 582.01 831.925 564.174 838.239 548.496C867.236 475.682 831.609 392.87 758.776 363.881C743.04 357.621 735.358 339.785 741.672 324.107C747.936 308.376 765.775 300.695 781.456 307.009C885.655 348.519 936.648 467.001 895.179 571.223C890.022 584.167 876.972 591.69 863.763 590.374L863.71 590.322Z" fill="white"/>
<path d="M354.458 658.665C318.935 655.192 284.834 642.409 255.154 620.89C211.159 589.006 182.163 541.92 173.585 488.308C155.85 377.56 231.578 273.073 342.353 255.396C453.129 237.718 557.642 313.375 575.324 424.122C578.008 440.852 566.588 456.53 549.905 459.214C533.225 461.897 517.489 450.533 514.805 433.803C502.439 356.41 429.394 303.535 351.984 315.899C274.572 328.263 221.684 401.288 234.051 478.68C240.05 516.14 260.258 549.074 291.044 571.33C321.777 593.584 359.352 602.529 396.873 596.583C413.554 593.952 429.29 605.317 431.973 621.994C434.657 638.726 423.237 654.404 406.556 657.086C389.084 659.876 371.612 660.402 354.404 658.717L354.458 658.665Z" fill="white"/>
<path d="M205.634 535.08C193.53 533.922 182.795 525.557 179.164 513.14C147.747 405.497 209.792 292.33 317.462 260.92C333.723 256.185 350.721 265.498 355.457 281.754C360.194 298.011 350.88 315.005 334.618 319.739C259.364 341.679 216.054 420.754 237.999 495.99C242.735 512.246 233.42 529.24 217.159 533.976C213.317 535.08 209.37 535.449 205.634 535.08Z" fill="white"/>
</g>
</g>
<defs>
<clipPath id="clip0_508_1877">
<rect width="739" height="837" fill="white" transform="translate(171 121)"/>
</clipPath>
</defs>
</svg>
