<svg width="1518" height="1080" viewBox="0 0 1518 1080" fill="none" xmlns="http://www.w3.org/2000/svg">
<g clip-path="url(#clip0_508_1876)">
<mask id="mask0_508_1876" style="mask-type:luminance" maskUnits="userSpaceOnUse" x="128" y="139" width="1263" height="802">
<path d="M1391 139H128V941H1391V139Z" fill="white"/>
</mask>
<g mask="url(#mask0_508_1876)">
<path d="M920.538 211.584C912.208 203.508 908.074 193.519 908.074 181.743C908.074 171.509 911.406 162.384 918.132 154.492C926.769 144.38 940.097 138.461 953.424 139.263C963.728 139.879 972.737 144.01 980.265 151.902C988.596 160.349 992.73 170.337 992.73 181.743C992.73 195.246 987.3 206.405 976.379 214.975C969.653 220.278 961.2 223.361 952.684 223.607C939.911 224.039 929.299 220.031 920.538 211.584Z" fill="white"/>
<path d="M433.832 516.901C441.915 525.225 445.925 535.089 445.925 546.494C445.925 557.902 441.915 566.842 433.832 574.426C425.81 582.07 416.186 585.832 405.141 585.832C394.096 585.832 384.1 582.07 376.202 574.426C368.427 566.904 364.541 557.532 364.541 546.494C364.541 535.459 368.427 525.225 376.202 516.901C384.1 508.577 393.726 504.447 405.141 504.447C416.556 504.447 425.81 508.577 433.832 516.901Z" fill="white"/>
<path d="M1387.56 404.379C1354.06 419.979 1320.92 432.557 1288.34 441.867C1255.64 451.052 1221.46 457.958 1185.61 462.09C1149.76 466.344 1109.78 468.44 1065.6 468.44C1036.78 468.44 1013.52 465.85 996 460.548C978.353 455.246 965.457 446.552 957.188 434.221C954.35 430.091 951.882 425.405 949.784 420.349C947.44 423.739 944.972 426.823 942.504 429.721C933.001 440.757 922.389 449.08 910.666 454.628C899.003 460.054 886.355 463.816 872.842 465.666C859.206 467.638 844.645 468.502 828.972 468.502C800.527 468.502 775.724 464.864 754.558 457.464C733.271 449.942 716.921 439.277 705.444 425.281C698.286 416.587 693.228 406.847 690.389 396.057C678.727 406.045 665.46 415.109 650.775 423.309C627.946 436.009 602.093 446.552 573.526 454.568C544.832 462.644 513.921 468.564 480.539 472.632C447.282 476.64 412.236 478.736 375.338 478.736C331.59 478.736 294.569 475.468 263.903 469.118C233.36 462.768 208.309 453.518 188.811 441.497C169.313 429.413 154.937 414.739 145.558 397.659C136.179 380.52 131.552 361.344 131.552 340.136C131.552 327.434 132.601 314.425 134.822 301.354C136.92 288.222 139.635 275.398 143.028 262.82C146.545 250.365 149.63 238.836 152.654 228.17L222.686 244.755C221.02 251.907 219.045 259.922 216.948 268.924C214.726 277.864 213.06 286.434 211.888 294.634C210.592 302.957 209.914 310.726 209.914 317.878C209.914 335.265 215.528 350.184 226.82 362.762C237.988 375.218 256.931 384.712 283.463 391.064C309.933 397.413 346.091 400.557 391.935 400.557C421.182 400.557 449.998 399.139 478.441 396.117C506.886 393.159 534.406 387.302 560.937 378.608C587.408 369.914 612.52 357.338 636.029 340.814C659.538 324.228 680.701 302.402 699.274 275.274L761.099 305.115C758.139 313.685 755.792 321.331 754.374 328.359C752.954 335.388 752.152 341.183 752.152 345.868C752.152 354.686 754.62 362.454 759.433 369.114C764.369 375.588 772.823 380.766 784.916 384.712C797.011 388.474 813.855 390.445 835.574 390.445C852.049 390.445 865.192 388.906 874.94 385.884C884.813 383.048 892.463 376.944 898.201 367.818C903.94 358.756 908.752 345.376 912.64 327.743C916.404 310.233 920.723 286.742 925.227 257.518L998.468 270.218C997.542 276.939 996.37 284.769 994.58 293.462C992.914 302.156 991.434 310.849 990.138 319.789C988.842 328.606 988.348 336.806 988.348 343.958C988.348 353.7 990.446 362.022 994.58 368.744C998.838 375.464 1007.04 380.828 1019.14 384.712C1031.23 388.474 1049 390.445 1072.26 390.445C1095.52 390.445 1111.38 390.2 1123.17 389.768C1135.14 389.398 1143.96 388.72 1149.95 388.226C1155.93 387.548 1160.62 387.178 1163.95 387.178C1158.77 383.048 1152.41 376.636 1144.46 368.126C1136.68 359.68 1129.77 348.89 1123.78 335.696C1117.8 322.564 1114.84 306.903 1114.84 288.715C1114.84 263.251 1121.19 240.932 1133.9 221.881C1146.62 202.829 1163.89 187.847 1185.86 177.119C1207.7 166.33 1232.38 160.904 1259.9 160.904C1272.24 160.904 1284.21 161.829 1295.62 163.493C1307.04 165.158 1318.46 167.624 1329.93 171.139L1317.22 244.878C1308.77 242.782 1299.82 240.994 1290.57 239.822C1281.19 238.528 1272.67 237.849 1265.08 237.849C1250.64 237.849 1237.93 240.316 1227.14 245.125C1216.34 250.057 1207.88 256.654 1202.08 265.224C1184.93 289.393 1194.06 320.344 1212.76 340.382C1230.9 359.864 1254.28 368.558 1280.69 362.948C1308.65 356.968 1336.16 343.156 1362.39 331.935L1387.87 404.503L1387.56 404.379Z" fill="white"/>
<path d="M401.685 786.95C401.685 701.989 348.806 649.15 263.718 649.15C178.631 649.15 128.467 703.777 128.467 791.636C128.467 879.496 182.826 940.903 266.927 940.903C341.03 940.903 375.338 901.937 391.132 869.26L392.304 866.794L335.232 831.219L334.12 835.041C325.173 865.746 301.727 882.022 266.371 882.022C226.573 882.022 201.09 857.484 196.093 814.633H401.685V787.012V786.95ZM263.718 707.477C301.233 707.477 326.222 726.529 332.825 759.822H197.45C204.361 727.021 228.918 707.477 263.78 707.477H263.718Z" fill="white"/>
<path d="M719.944 768.638V935.725H651.577V773.88C651.577 727.761 636.954 710.621 597.712 710.621C548.104 710.621 517.252 750.45 517.252 814.571V935.725H448.885V654.392H517.252V690.892C539.093 663.578 572.291 649.15 613.939 649.15C680.392 649.15 719.944 693.852 719.944 768.638Z" fill="white"/>
<path d="M1018.46 874.192V776.53C1018.46 696.812 971.196 649.15 892.033 649.15C828.663 649.15 784.485 680.596 770.725 735.469L769.985 738.551L835.82 751.868L836.438 748.908C842.052 721.781 859.885 708.587 890.92 708.587C928.066 708.587 945.095 722.767 949.229 757.232L858.033 766.11C778.191 773.634 761.408 817.347 761.408 852.736C761.408 934.553 836.994 940.903 860.131 940.903C901.595 940.903 934.669 927.401 956.326 901.754C959.534 922.901 974.897 935.725 998.036 935.725H1056.53V874.192H1018.46ZM867.473 880.974C842.176 880.974 829.341 869.506 829.341 847.003C829.341 834.733 832.242 824.313 868.091 820.799L949.353 812.167C943.985 853.476 911.53 880.974 867.473 880.974Z" fill="white"/>
<path d="M1257.86 649.151C1215.84 649.151 1181.35 663.394 1157.48 690.398V544.215H1089.11V935.725H1157.48V898.732C1181.48 926.353 1216.03 940.903 1257.86 940.903C1337.27 940.903 1390.59 882.146 1390.59 794.72C1390.59 707.291 1337.21 649.151 1257.86 649.151ZM1242.69 710.621C1292.85 710.621 1322.71 742.065 1322.71 794.72C1322.71 847.373 1292.79 879.372 1242.69 879.372C1180.61 879.372 1158.59 833.747 1158.59 794.72C1158.59 732.695 1203.87 710.621 1242.69 710.621Z" fill="white"/>
</g>
</g>
<defs>
<clipPath id="clip0_508_1876">
<rect width="1263" height="802" fill="white" transform="translate(128 139)"/>
</clipPath>
</defs>
</svg>
