<svg width="437" height="495" viewBox="0 0 437 495" fill="none" xmlns="http://www.w3.org/2000/svg">
<g clip-path="url(#clip0_514_1748)">
<path d="M197.082 494.455C169.697 491.81 143.09 479.894 122.334 458.798C75.4058 411.068 76.0282 334.06 123.765 287.139C130.891 280.139 142.374 280.232 149.407 287.357C156.409 294.482 156.316 305.964 149.189 312.996C115.705 345.915 115.238 399.929 148.194 433.409C181.118 466.888 235.141 467.323 268.625 434.404C302.109 401.485 302.576 347.47 269.621 313.991C262.619 306.866 262.712 295.385 269.839 288.353C276.965 281.352 288.448 281.445 295.481 288.571C342.409 336.3 341.786 413.309 294.05 460.229C267.411 486.428 231.655 497.784 197.113 494.424L197.082 494.455Z" fill="white"/>
<path d="M109.482 36.1701C99.9592 35.2367 92.7085 27.0225 93.1441 17.3459C93.5798 7.35816 102.044 -0.389344 112.034 0.015144L354.732 10.5941C364.659 10.9363 372.47 19.4928 372.035 29.4805C371.599 39.4683 363.135 47.2158 353.145 46.7802L110.446 36.2013C110.135 36.2013 109.793 36.1701 109.482 36.139V36.1701Z" fill="white"/>
<path d="M221.386 159.166C219.644 159.01 217.901 158.574 216.189 157.859C206.947 154.032 202.559 143.422 206.387 134.181C224.436 90.5271 211.366 34.3033 211.21 33.7432C208.876 24.0355 214.882 14.2344 224.592 11.9008C234.301 9.56727 244.072 15.5101 246.437 25.249C247.091 28.0181 262.495 93.3274 239.871 148.027C236.759 155.587 229.104 159.881 221.386 159.134V159.166Z" fill="white"/>
<path d="M359.991 331.322C353.954 330.731 348.353 327.153 345.49 321.303C341.071 312.342 344.743 301.452 353.705 297.034C395.25 276.498 412.365 225.999 391.826 184.462C381.868 164.331 364.69 149.271 343.436 142.084C322.182 134.865 299.371 136.39 279.237 146.346C237.693 166.882 220.577 217.381 241.116 258.918C245.535 267.879 241.863 278.77 232.9 283.188C223.938 287.637 213.046 283.935 208.627 274.974C179.251 215.514 203.742 143.235 263.211 113.863C292.027 99.6436 324.64 97.4655 355.075 107.764C385.509 118.063 410.093 139.595 424.346 168.407C453.723 227.866 429.263 300.145 369.794 329.517C366.651 331.073 363.29 331.633 360.023 331.322H359.991Z" fill="white"/>
<path d="M409.627 277.556C407.978 277.4 406.297 276.996 404.679 276.343C395.374 272.64 390.831 262.092 394.565 252.82C411.712 209.758 390.644 160.783 347.575 143.639C338.27 139.937 333.727 129.389 337.461 120.117C341.165 110.814 351.714 106.271 360.987 110.005C422.604 134.554 452.758 204.624 428.236 266.261C425.186 273.916 417.469 278.365 409.658 277.587L409.627 277.556Z" fill="white"/>
<path d="M108.486 317.974C87.4801 315.92 67.3148 308.36 49.7636 295.634C23.7479 276.778 6.60118 248.931 1.52874 217.225C-8.95844 151.729 35.8221 89.936 101.328 79.4815C166.834 69.0271 228.637 113.77 239.093 179.266C240.68 189.16 233.927 198.432 224.062 200.019C214.198 201.606 204.893 194.885 203.306 184.991C195.993 139.221 152.799 107.951 107.023 115.263C61.2465 122.575 29.9717 165.762 37.2847 211.531C40.8323 233.685 52.7821 253.162 70.9869 266.324C89.1605 279.485 111.38 284.775 133.568 281.259C143.432 279.703 152.737 286.424 154.324 296.287C155.911 306.182 149.158 315.454 139.294 317.04C128.962 318.69 118.63 319.001 108.454 318.005L108.486 317.974Z" fill="white"/>
<path d="M20.4805 244.886C13.3231 244.201 6.9748 239.254 4.82757 231.911C-13.7506 168.251 22.939 101.324 86.6089 82.7485C96.2248 79.9482 106.276 85.4555 109.077 95.0698C111.878 104.684 106.37 114.734 96.7538 117.534C52.2533 130.509 26.6422 177.274 39.6189 221.768C42.4196 231.382 36.9115 241.432 27.2957 244.233C25.024 244.886 22.69 245.104 20.4805 244.886Z" fill="white"/>
</g>
<defs>
<clipPath id="clip0_514_1748">
<rect width="437" height="495" fill="white"/>
</clipPath>
</defs>
</svg>
