<svg width="1082" height="1226" viewBox="0 0 1082 1226" fill="none" xmlns="http://www.w3.org/2000/svg">
<g clip-path="url(#clip0_514_1748)">
<path d="M487.97 1224.65C420.166 1218.1 354.288 1188.58 302.895 1136.34C186.703 1018.12 188.244 827.389 306.439 711.178C324.084 693.838 352.516 694.07 369.929 711.717C387.265 729.365 387.034 757.801 369.39 775.217C286.483 856.75 285.328 990.532 366.924 1073.45C448.443 1156.37 582.203 1157.45 665.109 1075.92C748.015 994.385 749.171 860.603 667.574 777.683C650.238 760.036 650.469 731.599 668.114 714.183C685.758 696.844 714.19 697.075 731.603 714.722C847.795 832.938 846.254 1023.67 728.059 1139.88C662.104 1204.77 573.573 1232.9 488.047 1224.57L487.97 1224.65Z" fill="white"/>
<path d="M271.073 89.5851C247.496 87.2732 229.543 66.9285 230.622 42.9618C231.701 18.2244 252.658 -0.964315 277.391 0.0375082L878.307 26.239C902.886 27.0867 922.226 48.2791 921.147 73.0165C920.069 97.7538 899.111 116.943 874.378 115.864L273.462 89.6621C272.691 89.6621 271.844 89.5851 271.073 89.508V89.5851Z" fill="white"/>
<path d="M548.146 394.216C543.832 393.831 539.517 392.752 535.279 390.979C512.395 381.501 501.531 355.222 511.008 332.334C555.697 224.214 523.336 84.961 522.951 83.5739C517.172 59.5301 532.043 35.2552 556.083 29.4755C580.122 23.6957 604.316 38.4148 610.172 62.5356C611.79 69.3942 649.93 231.15 593.914 366.627C586.209 385.354 567.255 395.988 548.146 394.139V394.216Z" fill="white"/>
<path d="M891.328 820.607C876.381 819.143 862.512 810.281 855.423 795.793C844.482 773.599 853.574 746.627 875.764 735.684C978.627 684.822 1021 559.748 970.151 456.869C945.495 407.009 902.963 369.71 850.338 351.908C797.712 334.03 741.234 337.806 691.383 362.466C588.521 413.328 546.143 538.402 596.996 641.281C607.937 663.475 598.845 690.448 576.655 701.391C554.464 712.411 527.497 703.24 516.555 681.046C443.82 533.778 504.459 354.76 651.702 282.012C723.05 246.794 803.799 241.4 879.154 266.908C954.51 292.416 1015.38 345.743 1050.67 417.104C1123.4 564.372 1062.84 743.39 915.599 816.138C907.817 819.991 899.496 821.378 891.405 820.607H891.328Z" fill="white"/>
<path d="M1014.22 687.442C1010.14 687.057 1005.98 686.055 1001.97 684.436C978.935 675.266 967.686 649.141 976.932 626.177C1019.39 519.521 967.223 398.223 860.586 355.761C837.548 346.591 826.298 320.466 835.544 297.502C844.713 274.46 870.833 263.208 893.794 272.456C1046.35 333.259 1121.02 506.806 1060.3 659.468C1052.75 678.425 1033.64 689.446 1014.3 687.519L1014.22 687.442Z" fill="white"/>
<path d="M268.608 787.547C216.599 782.461 166.67 763.735 123.214 732.216C58.7995 685.515 16.3447 616.544 3.78549 538.016C-22.1805 375.798 88.695 222.75 250.886 196.857C413.077 170.964 566.099 281.781 591.988 443.999C595.918 468.505 579.198 491.47 554.773 495.4C530.348 499.331 507.31 482.685 503.38 458.179C485.273 344.819 378.327 267.37 264.986 285.48C151.645 303.59 74.2095 410.554 92.3164 523.914C101.1 578.783 130.687 627.024 175.762 659.622C220.759 692.22 275.773 705.321 330.71 696.613C355.135 692.759 378.173 709.405 382.103 733.834C386.032 758.34 369.312 781.305 344.887 785.235C319.307 789.32 293.726 790.09 268.531 787.624L268.608 787.547Z" fill="white"/>
<path d="M50.7093 606.526C32.9877 604.83 17.2694 592.577 11.9529 574.39C-34.0461 416.719 56.7963 250.956 214.441 204.949C238.25 198.013 263.137 211.653 270.072 235.466C277.006 259.278 263.368 284.17 239.56 291.106C129.378 323.241 65.9652 439.067 98.0952 549.268C105.03 573.08 91.3919 597.972 67.5833 604.907C61.9586 606.526 56.1798 607.065 50.7093 606.526Z" fill="white"/>
</g>
<defs>
<clipPath id="clip0_514_1748">
<rect width="1082" height="1226" fill="white"/>
</clipPath>
</defs>
</svg>
