<svg width="1501" height="954" viewBox="0 0 1501 954" fill="none" xmlns="http://www.w3.org/2000/svg">
<g clip-path="url(#clip0_514_1750)">
<path d="M941.884 86.3413C931.985 76.7337 927.072 64.8526 927.072 50.8445C927.072 38.67 931.031 27.8156 939.024 18.4281C949.29 6.40024 965.13 -0.640443 980.969 0.312983C993.215 1.04639 1003.92 5.9602 1012.87 15.3478C1022.77 25.3954 1027.68 37.2766 1027.68 50.8445C1027.68 66.9061 1021.23 80.1807 1008.25 90.375C1000.25 96.6823 990.208 100.349 980.089 100.643C964.91 101.156 952.297 96.3889 941.884 86.3413Z" fill="white"/>
<path d="M363.462 449.523C373.068 459.424 377.835 471.158 377.835 484.726C377.835 498.294 373.068 508.929 363.462 517.949C353.929 527.044 342.49 531.517 329.364 531.517C316.238 531.517 304.359 527.044 294.973 517.949C285.733 509.002 281.113 497.854 281.113 484.726C281.113 471.598 285.733 459.424 294.973 449.523C304.359 439.622 315.798 434.708 329.364 434.708C342.93 434.708 353.929 439.622 363.462 449.523Z" fill="white"/>
<path d="M1496.91 315.677C1457.1 334.232 1417.72 349.194 1379 360.268C1340.14 371.196 1299.51 379.41 1256.91 384.324C1214.3 389.384 1166.79 391.878 1114.28 391.878C1080.04 391.878 1052.39 388.797 1031.57 382.49C1010.59 376.183 995.268 365.842 985.442 351.174C982.069 346.26 979.135 340.686 976.642 334.672C973.856 338.706 970.923 342.373 967.989 345.82C956.697 358.948 944.084 368.849 930.151 375.449C916.292 381.903 901.26 386.377 885.2 388.577C868.995 390.924 851.689 391.951 833.063 391.951C799.259 391.951 769.78 387.624 744.628 378.823C719.329 369.876 699.897 357.188 686.258 340.539C677.752 330.198 671.739 318.611 668.365 305.776C654.506 317.657 638.74 328.438 621.288 338.193C594.156 353.301 563.431 365.842 529.48 375.376C495.381 384.984 458.643 392.024 418.972 396.865C379.448 401.632 337.797 404.126 293.946 404.126C241.955 404.126 197.957 400.239 161.513 392.684C125.215 385.13 95.4429 374.129 72.2709 359.828C49.0988 345.453 32.0131 327.998 20.867 307.683C9.72093 287.294 4.22119 264.485 4.22119 239.256C4.22119 224.148 5.46778 208.673 8.10764 193.125C10.6008 177.504 13.8273 162.249 17.8605 147.287C22.0402 132.473 25.7067 118.758 29.2998 106.07L112.529 125.799C110.549 134.306 108.202 143.84 105.709 154.548C103.069 165.182 101.089 175.377 99.6961 185.131C98.1562 195.032 97.3495 204.273 97.3495 212.78C97.3495 233.462 104.023 251.211 117.442 266.172C130.714 280.987 153.226 292.281 184.758 299.836C216.216 307.39 259.187 311.13 313.671 311.13C348.429 311.13 382.674 309.443 416.479 305.849C450.284 302.329 482.989 295.362 514.52 285.021C545.979 274.68 575.824 259.718 603.762 240.063C631.701 220.334 656.853 194.372 678.925 162.102L752.401 197.599C748.881 207.793 746.095 216.887 744.408 225.248C742.721 233.609 741.768 240.503 741.768 246.077C741.768 256.565 744.701 265.806 750.421 273.726C756.287 281.427 766.334 287.588 780.706 292.281C795.079 296.755 815.097 299.102 840.909 299.102C860.488 299.102 876.108 297.269 887.694 293.675C899.426 290.301 908.519 283.041 915.339 272.186C922.159 261.405 927.878 245.49 932.498 224.515C936.971 203.686 942.104 175.743 947.457 140.98L1034.5 156.088C1033.4 164.082 1032.01 173.397 1029.88 183.738C1027.9 194.079 1026.14 204.42 1024.6 215.054C1023.06 225.542 1022.47 235.296 1022.47 243.803C1022.47 255.391 1024.97 265.292 1029.88 273.286C1034.94 281.28 1044.69 287.661 1059.06 292.281C1073.44 296.755 1094.56 299.102 1122.2 299.102C1149.85 299.102 1168.69 298.809 1182.7 298.295C1196.92 297.855 1207.41 297.049 1214.52 296.462C1221.64 295.655 1227.21 295.215 1231.17 295.215C1225.01 290.301 1217.46 282.674 1208 272.553C1198.76 262.505 1190.54 249.671 1183.43 233.976C1176.32 218.354 1172.8 199.726 1172.8 178.09C1172.8 147.801 1180.35 121.252 1195.46 98.5894C1210.56 75.9272 1231.1 58.1054 1257.2 45.3442C1283.16 32.5096 1312.49 26.0557 1345.2 26.0557C1359.86 26.0557 1374.09 27.1558 1387.65 29.136C1401.22 31.1162 1414.79 34.0498 1428.42 38.2302L1413.32 125.945C1403.27 123.452 1392.64 121.325 1381.64 119.931C1370.49 118.391 1360.37 117.585 1351.36 117.585C1334.2 117.585 1319.09 120.518 1306.26 126.239C1293.43 132.106 1283.38 139.953 1276.49 150.148C1256.1 178.897 1266.95 215.714 1289.17 239.55C1310.73 262.725 1338.52 273.066 1369.91 266.392C1403.13 259.278 1435.83 242.85 1467 229.502L1497.28 315.824L1496.91 315.677Z" fill="white"/>
<path d="M325.257 770.754C325.257 669.691 262.414 606.838 161.293 606.838C60.1715 606.838 0.554688 671.818 0.554688 776.328C0.554688 880.838 65.1579 953.885 165.106 953.885C253.174 953.885 293.946 907.534 312.718 868.663L314.111 865.73L246.281 823.412L244.962 827.959C234.329 864.483 206.464 883.845 164.446 883.845C117.148 883.845 86.8634 854.655 80.9237 803.684H325.257V770.827V770.754ZM161.293 676.218C205.877 676.218 235.575 698.88 243.422 738.484H82.537C90.7499 699.467 119.935 676.218 161.366 676.218H161.293Z" fill="white"/>
<path d="M703.49 748.972V947.724H622.241V755.206C622.241 700.347 604.862 679.958 558.225 679.958C499.268 679.958 462.603 727.336 462.603 803.61V947.724H381.354V613.072H462.603V656.489C488.562 624 528.013 606.838 577.51 606.838C656.486 606.838 703.49 660.01 703.49 748.972Z" fill="white"/>
<path d="M1058.26 874.531V758.359C1058.26 663.53 1002.09 606.838 908.006 606.838C832.697 606.838 780.193 644.242 763.841 709.514L762.96 713.182L841.203 729.023L841.936 725.503C848.609 693.233 869.801 677.538 906.686 677.538C950.83 677.538 971.069 694.406 975.983 735.404L867.602 745.965C772.713 754.912 752.768 806.911 752.768 849.008C752.768 946.331 842.596 953.885 870.095 953.885C919.372 953.885 958.677 937.823 984.415 907.314C988.228 932.469 1006.49 947.724 1033.99 947.724H1103.5V874.531H1058.26ZM878.821 882.598C848.756 882.598 833.504 868.957 833.504 842.187C833.504 827.593 836.95 815.198 879.554 811.018L976.129 800.75C969.749 849.888 931.178 882.598 878.821 882.598Z" fill="white"/>
<path d="M1342.78 606.838C1292.84 606.838 1251.85 623.78 1223.47 655.903V482.013H1142.22V947.724H1223.47V903.72C1251.99 936.577 1293.06 953.885 1342.78 953.885C1437.15 953.885 1500.51 883.992 1500.51 779.995C1500.51 675.998 1437.08 606.838 1342.78 606.838ZM1324.74 679.959C1384.35 679.959 1419.85 717.362 1419.85 779.995C1419.85 842.628 1384.28 880.691 1324.74 880.691C1250.97 880.691 1224.79 826.419 1224.79 779.995C1224.79 706.214 1278.61 679.959 1324.74 679.959Z" fill="white"/>
</g>
<defs>
<clipPath id="clip0_514_1750">
<rect width="1501" height="954" fill="white"/>
</clipPath>
</defs>
</svg>
