<svg width="252" height="120" viewBox="0 0 252 120" fill="none" xmlns="http://www.w3.org/2000/svg">
<path fill-rule="evenodd" clip-rule="evenodd" d="M3.9267 89.3601C12.8539 107.8 32.7832 117.934 52.5415 110.653C57.1064 108.97 60.9143 106.642 64.6669 103.573C73.3649 96.3235 81.7857 88.247 90.0186 80.3417C90.254 80.7129 90.4487 81.0183 90.5825 81.2267L94.5919 87.0285C100.534 95.1 115.125 112.315 122.559 117.683C123.405 118.294 124.267 118.729 125.205 119.184C126.191 119.661 127.212 119.921 128.237 120H129.602C131.987 119.824 134.313 118.747 136.184 117.238C138.668 115.234 140.729 112.817 143.062 110.665C144.644 108.995 146.22 107.116 147.821 105.527C161.295 91.0963 174.468 75.7178 188.596 62.049C188.8 61.8451 188.941 61.7037 189.145 61.4987L191.926 59.0341C192.081 58.9129 192.101 58.8763 192.242 58.758C192.697 58.3761 193.095 58.0713 193.552 57.6984C198.384 53.7528 204.117 50.7879 210.592 50.7879C213.489 50.7879 216.638 51.4741 219.17 52.5382C220.42 53.0638 221.516 53.5736 222.584 54.2863C222.866 54.475 223.068 54.5978 223.343 54.7955C223.619 54.9938 223.814 55.1634 224.057 55.351C228.92 59.1011 230.584 66.2104 230.577 72.0843C230.575 73.0155 230.665 73.6769 230.662 74.5348L230.746 82.2255C230.745 83.1561 230.831 83.7566 230.831 84.676V97.6057C230.831 99.3988 230.915 100.941 230.915 102.676L230.915 111.634C230.914 112.058 230.777 112.732 231.169 112.732H251.493C251.879 112.732 251.749 112.133 251.747 111.718L251.746 97.2671C251.746 95.4149 251.831 93.8471 251.831 92.0275C251.831 84.7701 252 77.7532 252 70.4782C252 63.3239 250.865 58.8611 248.585 53.9421C248.077 52.8469 247.445 51.758 246.785 50.7525C246.098 49.7069 245.452 48.7847 244.718 47.8287C244.193 47.1426 243.627 46.4379 243.002 45.8238C242.742 45.5675 242.662 45.3974 242.412 45.145C236.227 38.9066 228.496 34.6202 219.758 32.7657C213.23 31.3804 206.68 31.354 200.079 32.4367C198.759 32.653 197.562 32.933 196.314 33.2434C193.9 33.8445 191.727 34.6022 189.504 35.5739C182.586 38.5962 176.446 45.1298 170.038 51.8245C156.158 66.3248 143.095 80.6679 129.696 95.6368C129.488 95.8847 129.326 95.9946 129.129 96.2531C128.94 96.501 128.805 96.5928 128.6 96.8244C128.349 97.1077 128.361 97.2136 128.027 97.4367C125.415 95.247 121.877 91.0259 119.344 88.3754C110.059 78.663 96.2357 60.5556 96.9057 46.5708C97.6384 31.2672 110.587 20.1379 125.323 18.3933C133.438 17.5274 143.813 19.9205 149.939 25.4564L150.787 26.2163C151.619 26.9887 152.531 27.7734 153.283 28.6263L155.477 31.3382C157.678 34.3104 159.448 37.7929 160.291 41.4078C160.81 41.0614 161.115 40.4806 161.54 40.035L170.319 29.8662C171.184 28.7559 172.965 26.9943 173.671 25.9431C173.181 25.3803 172.562 24.0667 172.095 23.3743L170.392 20.8483C169.034 19.0389 167.685 17.2897 166.07 15.6966C165.839 15.469 165.801 15.3896 165.601 15.1507C164.986 14.4161 164.189 13.6804 163.424 13.0979L161.795 11.5972C161.559 11.3578 161.443 11.2969 161.203 11.0885C158.332 8.5918 154.985 6.62688 151.485 5.06813L146.198 2.90774C145.707 2.71789 145.189 2.54664 144.674 2.40073C135.152 -0.273423 126.541 -0.867743 116.821 1.40363C94.317 6.8494 76.9092 27.503 78.676 51.0944C79.0373 54.5798 80.0279 57.5142 81.2461 60.7714C72.6751 70.1757 59.0115 87.6989 46.7037 91.213C37.6168 93.8071 26.5728 91.8642 21.5789 83.0778C18.5494 77.0563 20.3631 41.1977 20.5352 32.0998H0.256495C0.256495 38.3844 0.257624 44.6684 0.257059 50.9524C0.196096 63.0439 -1.35 78.2145 3.92614 89.3618L3.9267 89.3601Z" fill="#541AAC"/>
</svg>
