<svg width="356" height="67" viewBox="0 0 356 67" fill="none" xmlns="http://www.w3.org/2000/svg">
<path d="M33.758 0C11.8641 0 0 14.6491 0 33.8227C0 53.6428 14.7754 66.9989 31.6006 66.9989C45.9452 66.9989 51.8767 61.3976 51.8767 52.2422V41.1484C51.8767 38.7786 50.0435 36.6239 47.2387 36.6239H43.3558C43.5712 38.5634 43.7878 41.2559 43.7878 44.056V50.0887C43.7878 56.6591 41.6304 58.9214 33.2184 58.9214C19.953 58.9214 8.84394 51.1654 8.84394 32.7471C8.84394 16.0508 20.2761 8.0809 32.6787 8.0809C42.0623 8.0809 47.9938 11.2048 50.7985 14.9741H51.2305V11.8502C51.2305 5.92622 44.5428 0.0011454 33.758 0.0011454V0ZM110.113 20.4655C110.113 7.75593 100.622 0.538952 87.6798 0.538952H82.6111C77.4335 0.538952 69.8842 1.93954 66.0013 3.44771V60.3208C66.0013 64.1988 68.2664 66.0296 71.6097 66.0296H74.8453V38.9937C77.4335 40.717 81.9637 41.6862 87.8952 41.6862C100.406 41.6862 110.113 32.7459 110.113 20.4655ZM101.377 21.4358C101.377 29.1906 96.8469 34.0378 87.8952 34.0378C82.9342 34.0378 78.4051 33.3913 74.8453 31.4529V9.58677C76.7873 9.15538 80.669 8.61642 82.8265 8.61642H87.8952C96.8469 8.61642 101.377 12.9246 101.377 21.4347V21.4358ZM136.318 66.9989C152.926 66.9989 160.8 57.951 160.8 47.1799C160.8 36.5163 150.014 31.5616 140.739 29.4069C127.795 26.4981 124.992 24.4521 124.992 18.3131C124.992 11.9577 130.385 8.29604 139.984 8.29604C149.152 8.29604 154.544 10.881 158.642 16.0508H159.182V12.0653C159.182 6.14135 152.495 0.0011454 140.523 0.0011454C125.208 0.0011454 115.826 8.51115 115.826 19.6061C115.826 28.9766 121.973 33.0709 134.7 35.8709C148.182 38.7797 151.74 41.4722 151.74 48.1502C151.74 54.6131 148.182 58.8138 136.965 58.8138C128.553 58.8138 121.111 55.1509 117.228 49.8735H116.689V54.0742C116.689 61.3987 126.935 67 136.319 67L136.318 66.9989ZM243.086 56.0126V49.441C240.066 50.734 234.135 52.5649 228.634 52.5649H225.399C217.418 52.5649 215.584 49.441 215.584 41.2548V11.5252C215.584 4.30822 212.349 0.970349 206.308 0.970349H199.729V42.1164C199.729 57.951 208.249 66.5686 223.887 66.5686H228.633C240.173 66.5686 243.085 62.4744 243.085 56.0126H243.086ZM285.361 36.4442C289.567 26.4455 293.989 11.4005 293.989 7.84632C293.989 3.43054 290.969 0.971494 287.087 0.971494H278.891C276.626 16.0154 272.203 30.6473 266.379 43.8775C260.017 29.9996 257.32 19.4619 255.379 8.92425V9.03181C254.732 4.61603 251.496 0.971494 245.995 0.971494H237.044C239.956 21.0777 248.908 44.9543 258.183 60.6458C260.663 64.4151 264.223 66.3546 268.644 66.3546H270.585C277.273 55.8169 281.587 45.6008 285.361 36.4454V36.4442ZM356 65.9221V9.67717C356 4.83114 351.579 0.970349 347.696 0.970349H340.685V37.7361C336.587 29.6758 332.596 21.5079 329.037 14.3973C324.616 5.69049 318.683 0.969204 310.056 0.969204H302.398V56.2449C302.398 62.6895 307.143 65.9209 311.457 65.9209H317.928V24.5048C318.144 25.0437 318.683 26.1205 330.439 48.8116C338.527 64.4128 344.244 65.9209 349.637 65.9209H355.999L356 65.9221Z" fill="#01CBBD"/>
</svg>
